# xmcd
#
# Track frame offsets: 
#        150
#        10118
#        18745
#        27745
#        41563
#        54305
#        67535
#        77923
#        90658
#        103785
#        116285
#        125020
#        139035
#        148815
#        157748
#        162575
#        177328
#        186873
#        195480
#        209253
#
# Disc length: 2875 seconds
#
# Revision: 2
# Processed by: cddbd v1.5.2PL0 Copyright (c) Steve Scherf et al.
# Submitted via: ExactAudioCopy v0.95b4
#
DISCID=100b3914
DTITLE=Nat King Cole - Swingin' Easy Down Memory Lane
DYEAR=1994
DGENRE=Jazz
TTITLE0=It's Only A Paper Moon
TTITLE1=Almost Like Being In Love
TTITLE2=Straighten Up And Fly Right
TTITLE3=How High The Moon
TTITLE4=Sunny Side Of The Street
TTITLE5=How Deep The Ocean
TTITLE6=Tea For Two
TTITLE7=Route 66
TTITLE8=After You've Gone
TTITLE9=Could You (Would You)
TTITLE10=Perdido
TTITLE11=Frim Fram Sauce
TTITLE12=Hip Hip Hooray
TTITLE13=It's Only A Paper Moon (Alternate Track)
TTITLE14=Give Me That Jazz
TTITLE15=This Way To Love
TTITLE16=Almost Like Being In Love (Version 2)
TTITLE17=I Found A New Baby
TTITLE18=Nice Work If You Can Get It
TTITLE19=Exactly Like You
EXTD=DISC 1
EXTT0=
EXTT1=
EXTT2=
EXTT3=
EXTT4=
EXTT5=
EXTT6=
EXTT7=
EXTT8=
EXTT9=
EXTT10=
EXTT11=
EXTT12=
EXTT13=
EXTT14=
EXTT15=
EXTT16=
EXTT17=
EXTT18=
EXTT19=
PLAYORDER=
